<?xml version="1.0" encoding="utf-8"?>
<!-- Generator: Adobe Illustrator 22.0.1, SVG Export Plug-In . SVG Version: 6.00 Build 0)  -->
<svg version="1.1" id="Layer_1" xmlns="http://www.w3.org/2000/svg" xmlns:xlink="http://www.w3.org/1999/xlink" x="0px" y="0px"
	 viewBox="0 0 720.726 92.903" enable-background="new 0 0 720.726 92.903" xml:space="preserve">
<g>
	<g>
		<g>
			<path fill="#F8991D" d="M133.511,68.941c-13.567,5.758-28.314,8.537-41.73,8.537c-19.88,0-39.127-5.459-54.701-14.518
				c-1.362-0.79-2.369,0.615-1.243,1.634c14.44,13.031,33.498,20.848,54.676,20.848c15.104-0.002,32.655-4.747,44.752-13.674
				C137.269,70.287,135.554,68.069,133.511,68.941z"/>
			<path fill="#F8991D" d="M125.872,63.902c-1.068,0.751-0.88,1.784,0.295,1.645c3.899-0.468,12.592-1.513,14.135,0.472
				c1.55,1.985-1.72,10.15-3.177,13.802c-0.449,1.098,0.496,1.546,1.499,0.704c6.492-5.429,8.169-16.813,6.839-18.454
				C144.15,60.438,132.804,59.038,125.872,63.902z"/>
		</g>
		<path fill="#010101" d="M149.566,50.091c-3.699-2.078-8.015-2.686-12.081-2.595l10.969-15.668
			c1.027-1.405,1.596-2.292,1.598-2.979l0.004-4.052c-0.004-0.708-0.543-1.195-1.225-1.195l-21.189,0.009
			c-0.654-0.009-1.197,0.472-1.2,1.191v4.734c0.003,0.697,0.551,1.186,1.223,1.186h11.073l-12.714,18.242
			c-0.777,1.173-0.788,2.487-0.787,3.251l-0.001,4.797c0.001,0.697,0.77,1.489,1.502,1.1c7.218-3.838,15.873-3.463,22.391-0.048
			c0.806,0.418,1.566-0.381,1.566-1.078v-5.044C150.627,51.262,150.413,50.559,149.566,50.091z"/>
		<path fill="#010101" d="M42.707,59.062h6.441c0.686,0,1.244-0.524,1.245-1.188l-0.001-17.538c0.001-3.829-0.181-9.124,4.457-9.124
			c4.578,0,3.97,5.438,3.97,9.126l0.008,17.536c0,0.634,0.511,1.149,1.161,1.188h6.437c0.689,0,1.244-0.524,1.244-1.188
			l-0.001-17.538c0-1.881-0.062-4.665,0.599-6.342c0.662-1.662,2.29-2.712,3.858-2.712c1.858,0,3.303,0.626,3.788,2.851
			c0.302,1.323,0.179,4.801,0.179,6.204l0.005,17.538c0,0.634,0.511,1.147,1.156,1.188h6.439c0.682,0,1.246-0.526,1.245-1.188
			l0.001-20.885c0.001-3.546,0.424-7.594-1.625-10.373c-1.81-2.502-4.754-3.626-7.459-3.626c-3.801,0-7.347,1.955-8.909,6.132
			c-1.805-4.176-4.333-6.132-8.363-6.132c-3.97,0-6.921,1.957-8.485,6.132l-0.121,0.002l-0.001-4.323
			c-0.037-0.6-0.542-1.072-1.172-1.108h-6.006c-0.682,0-1.241,0.533-1.241,1.195l0.001,33.089
			C41.598,58.57,42.09,59.023,42.707,59.062z"/>
		<path fill="#010101" d="M168.301,22.988c-9.329,0-14.506,8.011-14.506,18.319c0,10.23,5.114,18.454,14.508,18.454
			c9.022,0,14.738-8.011,14.738-18.105C183.042,31.209,177.86,22.988,168.301,22.988z M168.304,52.925c-5.061,0-5-8.624-5-12.665
			c-0.002-4.035,0.3-10.509,5.048-10.512c2.052,0,3.488,0.9,4.222,3.206c0.838,2.637,0.959,5.977,0.959,8.773
			C173.532,45.972,173.294,52.925,168.304,52.925z"/>
		<path fill="#010101" d="M212.649,26.893c-1.803-2.857-4.628-3.907-7.518-3.907c-4.458,0-6.988,2.16-8.793,6.691h-0.121
			l0.001-5.063c-0.109-0.511-0.577-0.898-1.143-0.924h-5.98c-0.646,0-1.183,0.472-1.236,1.08l0.012,33.102
			c0,0.634,0.508,1.147,1.158,1.186h6.412c0.695,0,1.247-0.524,1.261-1.188V40.047c-0.001-2.221,0.122-4.243,1.032-6.267
			c0.718-1.598,2.162-2.641,3.72-2.641c4.467,0.002,4.033,5.284,4.033,8.908l0.001,17.967c0.076,0.569,0.554,1.004,1.146,1.043
			h6.472c0.635,0,1.161-0.452,1.235-1.041l-0.001-20.826C214.339,33.991,214.34,29.536,212.649,26.893z"/>
		<path fill="#010101" d="M109.552,36.701c-3.743,0.42-8.625,0.703-12.122,2.225c-4.039,1.749-6.869,5.314-6.871,10.548
			c0.001,6.697,4.217,10.044,9.639,10.044c4.589,0,7.097-1.078,10.639-4.684c1.167,1.695,1.548,2.515,3.69,4.295
			c0.481,0.258,1.095,0.238,1.525-0.147l0.009,0.011c1.291-1.143,3.634-3.18,4.952-4.277c0.52-0.435,0.428-1.13,0.023-1.712
			c-1.181-1.634-2.439-2.961-2.439-5.979V36.978c0-4.26,0.305-8.161-2.829-11.092c-2.476-2.373-6.575-3.204-9.716-3.204
			c-6.128,0.002-12.969,2.284-14.418,9.867c-0.146,0.803,0.435,1.221,0.971,1.342l6.247,0.675c0.583-0.026,1.003-0.602,1.118-1.184
			c0.534-2.606,2.72-3.877,5.183-3.877c1.323,0,2.835,0.502,3.612,1.686c0.911,1.323,0.788,3.143,0.788,4.669V36.701z
			 M108.348,50.096c-1.031,1.816-2.654,2.937-4.461,2.937c-2.473,0-3.92-1.89-3.919-4.68c0-5.492,4.922-6.492,9.584-6.492v1.405
			C109.552,45.771,109.612,47.862,108.348,50.096z"/>
		<path fill="#010101" d="M36.523,53.005c-1.174-1.634-2.434-2.961-2.435-5.979V36.98c0-4.258,0.303-8.161-2.832-11.096
			c-2.473-2.366-6.575-3.197-9.713-3.197c-6.131,0-12.977,2.282-14.406,9.864c-0.159,0.803,0.426,1.221,0.953,1.342l6.249,0.675
			c0.583-0.024,1.003-0.6,1.117-1.184c0.54-2.606,2.731-3.868,5.181-3.868c1.329,0,2.839,0.494,3.619,1.676
			c0.907,1.325,0.785,3.145,0.784,4.671v0.84c-3.738,0.42-8.623,0.704-12.113,2.225c-4.046,1.749-6.878,5.314-6.876,10.546
			c-0.002,6.7,4.217,10.046,9.649,10.046c4.579,0,7.083-1.08,10.621-4.684c1.172,1.695,1.558,2.515,3.697,4.295
			c0.482,0.258,1.099,0.236,1.528-0.145l0.012,0.011c1.293-1.143,3.626-3.182,4.944-4.28C37.031,54.282,36.935,53.587,36.523,53.005
			z M25.042,43.268c0.001,2.504,0.058,4.595-1.197,6.829c-1.029,1.816-2.663,2.937-4.472,2.937c-2.474,0-3.92-1.885-3.919-4.68
			c0.001-5.492,4.928-6.492,9.588-6.492V43.268z"/>
	</g>
	<g>
		<path fill="#F8991D" d="M245.807,22.592c-2.147,0-4.267,0.403-6.302,1.197c-1.764,0.69-3.589,1.743-5.437,3.135l-0.251-2.805
			c-0.025-0.286-0.265-0.505-0.552-0.505h-3.408c-0.306,0-0.554,0.248-0.554,0.554v48.326c0,0.306,0.248,0.554,0.554,0.554h3.886
			c0.306,0,0.554-0.248,0.554-0.554v-16.73c3.304,2.651,6.964,3.993,10.896,3.993c4.698,0,8.49-1.744,11.269-5.182
			c2.75-3.403,4.145-8.015,4.145-13.708c0-5.6-1.325-10.086-3.94-13.333C254.022,24.255,250.368,22.592,245.807,22.592z
			 M255.477,41.141c0,4.668-0.912,8.211-2.712,10.532c-1.792,2.31-4.402,3.432-7.98,3.432c-1.871,0-3.679-0.364-5.373-1.081
			c-1.653-0.7-3.373-1.794-5.115-3.257v-19.44c3.584-2.709,7.203-4.083,10.76-4.083C252.069,27.245,255.477,31.79,255.477,41.141z"
			/>
		<path fill="#F8991D" d="M294.133,23.615h-3.885c-0.306,0-0.554,0.248-0.554,0.554v27.109c-2.086,1.424-4.07,2.469-5.899,3.108
			c-1.886,0.658-3.935,0.992-6.088,0.992c-2.273,0-3.942-0.61-4.962-1.815c-1.043-1.231-1.573-3.3-1.573-6.151V24.169
			c0-0.306-0.248-0.554-0.554-0.554h-3.886c-0.306,0-0.554,0.248-0.554,0.554v24.878c0,3.543,0.937,6.289,2.784,8.16
			c1.849,1.874,4.515,2.823,7.926,2.823c4.456,0,8.819-1.455,12.98-4.326l0.306,2.809c0.031,0.281,0.268,0.494,0.551,0.494h3.408
			c0.306,0,0.554-0.248,0.554-0.554V24.169C294.687,23.863,294.439,23.615,294.133,23.615z"/>
		<path fill="#F8991D" d="M318.738,22.592c-2.147,0-4.267,0.403-6.302,1.197c-1.722,0.674-3.47,1.66-5.208,2.939V8.015
			c0-0.306-0.248-0.554-0.554-0.554h-3.886c-0.306,0-0.554,0.248-0.554,0.554v50.439c0,0.306,0.248,0.554,0.554,0.554h3.408
			c0.284,0,0.522-0.215,0.551-0.497l0.3-2.903c3.375,2.755,7.096,4.15,11.076,4.15c4.697,0,8.488-1.731,11.268-5.146
			c2.751-3.381,4.146-8.005,4.146-13.743c0-5.6-1.325-10.086-3.94-13.333C326.953,24.255,323.299,22.592,318.738,22.592z
			 M317.715,55.105c-1.872,0-3.682-0.353-5.379-1.05c-1.647-0.674-3.364-1.778-5.109-3.283V31.328
			c1.823-1.375,3.606-2.405,5.303-3.064c1.746-0.676,3.582-1.019,5.457-1.019c7.011,0,10.42,4.545,10.42,13.896
			c0,4.668-0.912,8.211-2.712,10.533v-0.001C323.903,53.983,321.293,55.105,317.715,55.105z"/>
		<path fill="#F8991D" d="M349.798,54.496c-2.317,0.289-3.833,0.292-4.334-0.239c0,0,0-0.001-0.001-0.001
			c-0.28-0.297-0.428-0.895-0.428-1.732V8.015c0-0.306-0.248-0.554-0.554-0.554h-3.886c-0.306,0-0.554,0.248-0.554,0.554v44.577
			c0,2.048,0.568,3.679,1.687,4.848c1.127,1.176,2.694,1.773,4.66,1.773c1.175,0,2.393-0.167,3.62-0.496
			c0.242-0.065,0.411-0.285,0.411-0.535v-3.135c0-0.159-0.068-0.31-0.187-0.416C350.114,54.525,349.955,54.477,349.798,54.496z"/>
		<path fill="#F8991D" d="M360.118,23.615h-3.886c-0.306,0-0.554,0.248-0.554,0.554v34.285c0,0.306,0.248,0.554,0.554,0.554h3.886
			c0.306,0,0.554-0.248,0.554-0.554V24.169C360.672,23.863,360.425,23.615,360.118,23.615z"/>
		<path fill="#F8991D" d="M358.209,10.256c-1.061,0-1.918,0.332-2.546,0.988c-0.623,0.649-0.939,1.512-0.939,2.566
			c0,1.053,0.316,1.916,0.938,2.564c0.628,0.656,1.484,0.989,2.547,0.989c1.061,0,1.918-0.333,2.548-0.989
			c0.622-0.65,0.937-1.513,0.937-2.564c0-1.051-0.316-1.915-0.938-2.566C360.127,10.588,359.27,10.256,358.209,10.256z"/>
		<path fill="#F8991D" d="M383.227,40.281l-5.448-2.042c-2.511-0.969-4.204-1.859-5.033-2.646c-0.778-0.738-1.156-1.777-1.156-3.176
			c0-1.741,0.554-3.013,1.693-3.889c1.167-0.896,2.934-1.351,5.251-1.351c2.883,0,6.174,0.588,9.781,1.746
			c0.168,0.054,0.353,0.025,0.496-0.08c0.143-0.104,0.228-0.271,0.228-0.448v-3.204c0-0.22-0.13-0.419-0.332-0.508
			c-1.478-0.647-3.119-1.163-4.879-1.535c-1.761-0.37-3.474-0.557-5.089-0.557c-3.524,0-6.43,0.926-8.635,2.752
			c-2.236,1.852-3.37,4.301-3.37,7.277c0,4.372,2.575,7.551,7.653,9.448l6.204,2.318c2.009,0.744,3.446,1.528,4.27,2.331
			c0.782,0.762,1.162,1.658,1.162,2.739c0,1.972-0.642,3.422-1.963,4.434c-1.349,1.033-3.368,1.556-6.003,1.556
			c-3.466,0-7.233-0.723-11.195-2.148c-0.17-0.061-0.359-0.036-0.507,0.068c-0.148,0.104-0.235,0.273-0.235,0.453v3.204
			c0,0.21,0.118,0.402,0.306,0.496c3.335,1.667,7.156,2.512,11.358,2.512c3.972,0,7.173-0.946,9.513-2.814
			c2.378-1.896,3.584-4.507,3.584-7.761c0-2.166-0.628-4.017-1.868-5.502C387.797,42.501,385.85,41.265,383.227,40.281z"/>
		<path fill="#F8991D" d="M414.44,22.592c-2.368,0-4.827,0.446-7.308,1.327c-2.152,0.764-4.249,1.804-6.247,3.097V8.015
			c0-0.306-0.248-0.554-0.554-0.554h-3.886c-0.306,0-0.554,0.248-0.554,0.554v50.439c0,0.306,0.248,0.554,0.554,0.554h3.886
			c0.306,0,0.554-0.248,0.554-0.554V31.35c4.129-2.724,8.412-4.105,12.737-4.105c2.316,0,4.008,0.611,5.03,1.815
			c1.044,1.233,1.574,3.279,1.574,6.083v23.311c0,0.306,0.248,0.554,0.554,0.554h3.884c0.306,0,0.554-0.248,0.554-0.554V33.507
			c0-3.542-0.937-6.277-2.786-8.128C420.582,23.53,417.893,22.592,414.44,22.592z"/>
		<path fill="#F8991D" d="M447.43,22.592c-5.096,0-9.123,1.658-11.971,4.928c-2.827,3.247-4.26,7.853-4.26,13.689
			c0,6.156,1.423,10.877,4.229,14.035c2.823,3.177,7.068,4.787,12.615,4.787c4.525,0,8.492-0.941,11.791-2.798
			c0.175-0.098,0.283-0.282,0.283-0.483v-3.204c0-0.187-0.095-0.362-0.252-0.464c-0.156-0.103-0.355-0.119-0.527-0.042
			c-3.5,1.551-7.209,2.338-11.022,2.338c-4.088,0-7.137-1.085-9.063-3.225c-1.863-2.07-2.865-5.312-2.983-9.64h23.565
			c0.264,0,0.491-0.187,0.543-0.445c0.279-1.393,0.42-3.15,0.42-5.221c0-4.531-1.162-8.075-3.455-10.535
			C455.039,23.844,451.704,22.592,447.43,22.592z M447.089,27.177c2.916,0,5.143,0.79,6.618,2.348
			c1.482,1.568,2.234,3.94,2.234,7.05c0,0.615-0.012,1.184-0.037,1.695h-19.61C436.834,30.807,440.369,27.177,447.089,27.177z"/>
		<path fill="#F8991D" d="M485.041,23.551c-1.109-0.139-2.072-0.209-2.863-0.209c-2.162,0-4.135,0.419-5.863,1.247l-0.001,0.001
			c-1.436,0.688-2.908,1.787-4.387,3.274l-0.307-3.74c-0.024-0.287-0.264-0.509-0.553-0.509h-3.408
			c-0.306,0-0.554,0.248-0.554,0.554v34.285c0,0.306,0.248,0.554,0.554,0.554h3.886c0.306,0,0.554-0.248,0.554-0.554V32.556
			c1.401-1.581,2.864-2.743,4.355-3.457c1.529-0.733,3.317-1.105,5.315-1.105c0.935,0,1.999,0.045,3.161,0.135
			c0.159,0.009,0.306-0.042,0.419-0.146c0.113-0.104,0.178-0.252,0.178-0.406v-3.476C485.526,23.821,485.318,23.585,485.041,23.551z
			"/>
		<path fill="#F8991D" d="M513.521,40.281l-5.448-2.042c-2.511-0.969-4.204-1.859-5.033-2.646c-0.778-0.738-1.156-1.777-1.156-3.176
			c0-1.741,0.554-3.013,1.693-3.889c1.167-0.896,2.934-1.351,5.251-1.351c2.883,0,6.174,0.588,9.781,1.746
			c0.168,0.054,0.353,0.025,0.496-0.08c0.143-0.104,0.228-0.271,0.228-0.448v-3.204c0-0.22-0.13-0.419-0.332-0.508
			c-1.478-0.647-3.119-1.163-4.879-1.535c-1.761-0.37-3.474-0.557-5.089-0.557c-3.524,0-6.43,0.926-8.635,2.752
			c-2.236,1.852-3.37,4.301-3.37,7.277c0,4.372,2.575,7.551,7.653,9.448l6.204,2.318c2.009,0.744,3.446,1.528,4.27,2.331
			c0.782,0.762,1.162,1.658,1.162,2.739c0,1.972-0.642,3.422-1.963,4.434c-1.349,1.033-3.368,1.556-6.003,1.556
			c-3.466,0-7.233-0.723-11.195-2.148c-0.17-0.061-0.358-0.036-0.507,0.068c-0.148,0.104-0.235,0.273-0.235,0.453v3.204
			c0,0.21,0.118,0.402,0.306,0.496c3.335,1.667,7.156,2.512,11.358,2.512c3.972,0,7.173-0.946,9.513-2.814
			c2.378-1.896,3.584-4.507,3.584-7.761c0-2.166-0.628-4.017-1.868-5.502C518.091,42.501,516.144,41.265,513.521,40.281z"/>
		<path fill="#F8991D" d="M541.312,22.592c-5.096,0-9.123,1.658-11.971,4.928c-2.827,3.247-4.26,7.853-4.26,13.689
			c0,6.156,1.423,10.877,4.229,14.035c2.823,3.177,7.068,4.787,12.615,4.787c4.525,0,8.492-0.941,11.791-2.798
			c0.175-0.098,0.282-0.282,0.282-0.483v-3.204c0-0.187-0.095-0.362-0.252-0.464c-0.157-0.103-0.356-0.119-0.527-0.042
			c-3.5,1.551-7.209,2.338-11.022,2.338c-4.088,0-7.137-1.085-9.063-3.225c-1.863-2.07-2.865-5.312-2.983-9.64h23.565
			c0.264,0,0.491-0.187,0.543-0.445c0.279-1.393,0.42-3.15,0.42-5.221c0-4.531-1.162-8.075-3.455-10.535
			C548.921,23.844,545.586,22.592,541.312,22.592z M540.971,27.177c2.916,0,5.143,0.79,6.618,2.348
			c1.482,1.568,2.234,3.94,2.234,7.05c0,0.615-0.012,1.184-0.037,1.695h-19.61C530.716,30.807,534.251,27.177,540.971,27.177z"/>
		<path fill="#F8991D" d="M578.923,23.551c-1.109-0.139-2.072-0.209-2.863-0.209c-2.162,0-4.135,0.419-5.863,1.247l-0.001,0.001
			c-1.436,0.688-2.908,1.787-4.387,3.274l-0.307-3.74c-0.024-0.287-0.264-0.509-0.552-0.509h-3.408
			c-0.306,0-0.554,0.248-0.554,0.554v34.285c0,0.306,0.248,0.554,0.554,0.554h3.886c0.306,0,0.554-0.248,0.554-0.554V32.556
			c1.401-1.581,2.864-2.743,4.355-3.457c1.529-0.733,3.317-1.105,5.315-1.105c0.935,0,1.999,0.045,3.161,0.135
			c0.157,0.009,0.306-0.042,0.419-0.146c0.113-0.104,0.178-0.252,0.178-0.406v-3.476C579.408,23.821,579.2,23.585,578.923,23.551z"
			/>
		<path fill="#F8991D" d="M615.32,23.615h-4.09c-0.229,0-0.434,0.141-0.517,0.354l-11.207,28.929l-11.207-28.929
			c-0.083-0.213-0.288-0.354-0.517-0.354h-4.225c-0.184,0-0.356,0.091-0.459,0.244c-0.103,0.153-0.123,0.347-0.055,0.517
			l13.836,34.285c0.085,0.209,0.288,0.347,0.514,0.347h4.089c0.226,0,0.429-0.137,0.514-0.347l13.838-34.285
			c0.069-0.17,0.048-0.365-0.055-0.517C615.676,23.706,615.504,23.615,615.32,23.615z"/>
		<path fill="#F8991D" d="M622.816,10.256c-1.061,0-1.918,0.332-2.546,0.988c-0.623,0.649-0.939,1.512-0.939,2.566
			c0,1.053,0.316,1.916,0.938,2.564c0.628,0.656,1.484,0.989,2.547,0.989c1.061,0,1.918-0.333,2.548-0.989
			c0.622-0.65,0.937-1.513,0.937-2.564c0-1.051-0.315-1.915-0.938-2.566C624.734,10.588,623.877,10.256,622.816,10.256z"/>
		<path fill="#F8991D" d="M624.725,23.615h-3.886c-0.306,0-0.554,0.248-0.554,0.554v34.285c0,0.306,0.248,0.554,0.554,0.554h3.886
			c0.306,0,0.554-0.248,0.554-0.554V24.169C625.279,23.863,625.032,23.615,624.725,23.615z"/>
		<path fill="#F8991D" d="M656.041,53.565c-2.972,0.976-5.711,1.471-8.142,1.471c-3.994,0-6.949-1.071-8.784-3.183
			c-1.855-2.137-2.795-5.534-2.795-10.1v-0.818c0-4.701,0.929-8.144,2.76-10.234c1.813-2.068,4.826-3.117,8.955-3.117
			c2.609,0,5.166,0.404,7.597,1.2c0.171,0.056,0.354,0.027,0.498-0.078c0.144-0.104,0.229-0.271,0.229-0.449v-3.204
			c0-0.22-0.13-0.42-0.332-0.508c-2.558-1.117-5.315-1.683-8.196-1.683c-5.41,0-9.607,1.609-12.476,4.783
			c-2.853,3.158-4.3,7.766-4.3,13.697c0,5.976,1.424,10.585,4.232,13.697c2.823,3.129,6.998,4.716,12.408,4.716
			c2.925,0,5.868-0.659,8.748-1.958c0.199-0.089,0.326-0.287,0.326-0.505v-3.203c0-0.178-0.085-0.345-0.229-0.449
			C656.396,53.538,656.212,53.512,656.041,53.565z"/>
		<path fill="#F8991D" d="M675.946,22.592c-5.096,0-9.123,1.658-11.971,4.928c-2.827,3.247-4.26,7.853-4.26,13.689
			c0,6.156,1.423,10.877,4.229,14.035c2.823,3.177,7.068,4.787,12.615,4.787c4.525,0,8.492-0.941,11.791-2.798
			c0.175-0.098,0.282-0.282,0.282-0.483v-3.204c0-0.187-0.095-0.362-0.252-0.464c-0.157-0.103-0.354-0.119-0.527-0.042
			c-3.5,1.551-7.209,2.338-11.022,2.338c-4.088,0-7.137-1.085-9.063-3.225c-1.863-2.07-2.865-5.312-2.983-9.64h23.565
			c0.264,0,0.491-0.187,0.543-0.445c0.279-1.393,0.42-3.15,0.42-5.221c0-4.531-1.162-8.075-3.455-10.535
			C683.556,23.844,680.22,22.592,675.946,22.592z M675.605,27.177c2.916,0,5.143,0.79,6.618,2.348
			c1.482,1.568,2.234,3.94,2.234,7.05c0,0.615-0.012,1.184-0.037,1.695h-19.61C665.35,30.807,668.886,27.177,675.605,27.177z"/>
		<path fill="#F8991D" d="M716.184,43.955C716.184,43.955,716.184,43.954,716.184,43.955c-1.216-1.454-3.163-2.69-5.786-3.674
			l-5.448-2.042c-2.511-0.969-4.204-1.859-5.033-2.646c-0.778-0.738-1.156-1.777-1.156-3.176c0-1.741,0.554-3.013,1.693-3.889
			c1.167-0.896,2.934-1.351,5.251-1.351c2.883,0,6.174,0.588,9.781,1.746c0.167,0.054,0.353,0.025,0.496-0.08
			c0.143-0.104,0.228-0.271,0.228-0.448v-3.204c0-0.22-0.13-0.419-0.332-0.508c-1.478-0.647-3.119-1.163-4.879-1.535
			c-1.761-0.37-3.474-0.557-5.089-0.557c-3.524,0-6.43,0.926-8.635,2.752c-2.236,1.852-3.37,4.301-3.37,7.277
			c0,4.372,2.575,7.551,7.653,9.448l6.204,2.318c2.009,0.744,3.446,1.528,4.27,2.331c0.782,0.762,1.162,1.658,1.162,2.739
			c0,1.972-0.642,3.422-1.963,4.434c-1.349,1.033-3.368,1.556-6.003,1.556c-3.466,0-7.233-0.723-11.195-2.148
			c-0.169-0.061-0.358-0.036-0.507,0.068c-0.148,0.104-0.235,0.273-0.235,0.453v3.204c0,0.21,0.119,0.402,0.306,0.496
			c3.335,1.667,7.156,2.512,11.358,2.512c3.972,0,7.173-0.946,9.513-2.814c2.378-1.896,3.584-4.507,3.584-7.761
			C718.051,47.29,717.423,45.439,716.184,43.955z"/>
	</g>
</g>
</svg>
